<?xml version="1.0" encoding="iso-8859-1"?>
<!-- Generator: Adobe Illustrator 16.0.0, SVG Export Plug-In . SVG Version: 6.00 Build 0)  -->
<!DOCTYPE svg PUBLIC "-//W3C//DTD SVG 1.1//EN" "http://www.w3.org/Graphics/SVG/1.1/DTD/svg11.dtd">
<svg xmlns="http://www.w3.org/2000/svg" xmlns:xlink="http://www.w3.org/1999/xlink" version="1.1" id="Capa_1" x="0px" y="0px" width="512px" height="512px" viewBox="0 0 35 35" style="enable-background:new 0 0 35 35;" xml:space="preserve">
<g>
	<g>
		<path d="M25.087,18.48c-2.008,1.826-4.664,2.953-7.587,2.959c-2.922-0.006-5.579-1.133-7.587-2.959    c-3.664,0.684-6.439,3.892-6.439,7.756V35h14h0.053h14v-8.764C31.525,22.372,28.751,19.164,25.087,18.48z" fill="#FFFFFF"/>
		<path d="M10.245,17.1c1.829,1.904,4.388,3.096,7.229,3.112v0.003c0.01,0,0.018-0.003,0.026-0.003c0.01,0,0.019,0.003,0.026,0.003    v-0.003c2.841-0.017,5.399-1.208,7.229-3.112c3.248-0.225,6.129,3.106,6.129,3.106s0.229-1.604,0.229-3.534    c0.112-9.626-6.707-14.438-8.867-15.509l0.021,0.048c-1.41-0.763-3.023-1.197-4.74-1.208V0C17.519,0,17.51,0.003,17.5,0.003    C17.491,0.003,17.482,0,17.474,0v0.003c-1.716,0.011-3.329,0.445-4.74,1.208l0.024-0.048c-2.16,1.069-8.982,5.883-8.87,15.509    c0,1.93,0.229,3.534,0.229,3.534S6.997,16.875,10.245,17.1z M17.42,3.305L17.5,3.244l0.08,0.061    c0.338,2.201,5.839,5.575,8.136,7.299c-0.258,4.316-3.835,7.753-8.216,7.771c-3.266-0.014-6.083-1.927-7.414-4.688    c1.447,1.76,3.808,2.961,6.514,3.115c0.146,0.018,0.295,0.031,0.452,0.031c0.046,0,0.09-0.004,0.135-0.006    c0.003,0,0.005,0,0.008,0c0.922-0.037,1.65-0.406,1.65-0.863c0-0.48-0.803-0.871-1.793-0.871c-0.99,0-1.792,0.391-1.792,0.871    c0,0.043,0.014,0.082,0.025,0.125c-3.12-0.645-5.518-2.816-5.972-5.507C11.628,8.852,17.083,5.497,17.42,3.305z" fill="#FFFFFF"/>
	</g>
</g>
<g>
</g>
<g>
</g>
<g>
</g>
<g>
</g>
<g>
</g>
<g>
</g>
<g>
</g>
<g>
</g>
<g>
</g>
<g>
</g>
<g>
</g>
<g>
</g>
<g>
</g>
<g>
</g>
<g>
</g>
</svg>
